<mxfile host="app.diagrams.net" modified="2023-05-23T10:23:31.470Z" agent="Mozilla/5.0 (Macintosh; Intel Mac OS X 10_15_7) AppleWebKit/537.36 (KHTML, like Gecko) Chrome/113.0.0.0 Safari/537.36" etag="WfflZQXkaSwoSzDAn37N" version="21.3.2" type="github" pages="2">
  <diagram id="C5RBs43oDa-KdzZeNtuy" name="Page-1">
    <mxGraphModel dx="1912" dy="763" grid="1" gridSize="10" guides="1" tooltips="1" connect="1" arrows="1" fold="1" page="1" pageScale="1" pageWidth="827" pageHeight="1169" math="0" shadow="0">
      <root>
        <mxCell id="WIyWlLk6GJQsqaUBKTNV-0" />
        <mxCell id="WIyWlLk6GJQsqaUBKTNV-1" parent="WIyWlLk6GJQsqaUBKTNV-0" />
        <mxCell id="0sy5codoZnURSNEUjWPR-13" value="" style="edgeStyle=orthogonalEdgeStyle;rounded=0;orthogonalLoop=1;jettySize=auto;html=1;" parent="WIyWlLk6GJQsqaUBKTNV-1" source="WIyWlLk6GJQsqaUBKTNV-3" target="0sy5codoZnURSNEUjWPR-1" edge="1">
          <mxGeometry relative="1" as="geometry" />
        </mxCell>
        <mxCell id="WIyWlLk6GJQsqaUBKTNV-3" value="PENDAFTARAN" style="rounded=1;whiteSpace=wrap;html=1;fontSize=12;glass=0;strokeWidth=1;shadow=0;fillColor=#60a917;fontColor=#ffffff;strokeColor=#2D7600;" parent="WIyWlLk6GJQsqaUBKTNV-1" vertex="1">
          <mxGeometry x="320" y="122" width="120" height="40" as="geometry" />
        </mxCell>
        <mxCell id="0sy5codoZnURSNEUjWPR-7" value="" style="edgeStyle=orthogonalEdgeStyle;rounded=0;orthogonalLoop=1;jettySize=auto;html=1;" parent="WIyWlLk6GJQsqaUBKTNV-1" source="0sy5codoZnURSNEUjWPR-0" target="0sy5codoZnURSNEUjWPR-6" edge="1">
          <mxGeometry relative="1" as="geometry" />
        </mxCell>
        <mxCell id="0sy5codoZnURSNEUjWPR-0" value="VALIDASI AKUN DIBAGI MENJADI 2&amp;nbsp;" style="rounded=0;whiteSpace=wrap;html=1;" parent="WIyWlLk6GJQsqaUBKTNV-1" vertex="1">
          <mxGeometry x="320" y="312" width="120" height="60" as="geometry" />
        </mxCell>
        <mxCell id="0sy5codoZnURSNEUjWPR-2" value="" style="edgeStyle=orthogonalEdgeStyle;rounded=0;orthogonalLoop=1;jettySize=auto;html=1;" parent="WIyWlLk6GJQsqaUBKTNV-1" source="0sy5codoZnURSNEUjWPR-1" target="0sy5codoZnURSNEUjWPR-0" edge="1">
          <mxGeometry relative="1" as="geometry" />
        </mxCell>
        <mxCell id="0sy5codoZnURSNEUjWPR-1" value="INPUT DATA PENDAFTARAN" style="shape=parallelogram;perimeter=parallelogramPerimeter;whiteSpace=wrap;html=1;fixedSize=1;" parent="WIyWlLk6GJQsqaUBKTNV-1" vertex="1">
          <mxGeometry x="320" y="212" width="120" height="60" as="geometry" />
        </mxCell>
        <mxCell id="0sy5codoZnURSNEUjWPR-3" value="&lt;font style=&quot;font-size: 11px;&quot;&gt;Calon Mahasiswa&lt;br&gt;&amp;nbsp;KKN&lt;/font&gt;" style="text;html=1;align=left;verticalAlign=middle;resizable=0;points=[];autosize=1;strokeColor=#82b366;fillColor=#d5e8d4;" parent="WIyWlLk6GJQsqaUBKTNV-1" vertex="1">
          <mxGeometry x="450" y="222" width="110" height="40" as="geometry" />
        </mxCell>
        <mxCell id="0sy5codoZnURSNEUjWPR-9" value="" style="edgeStyle=orthogonalEdgeStyle;rounded=0;orthogonalLoop=1;jettySize=auto;html=1;" parent="WIyWlLk6GJQsqaUBKTNV-1" source="0sy5codoZnURSNEUjWPR-6" target="0sy5codoZnURSNEUjWPR-8" edge="1">
          <mxGeometry relative="1" as="geometry" />
        </mxCell>
        <mxCell id="0sy5codoZnURSNEUjWPR-11" value="" style="edgeStyle=orthogonalEdgeStyle;rounded=0;orthogonalLoop=1;jettySize=auto;html=1;" parent="WIyWlLk6GJQsqaUBKTNV-1" source="0sy5codoZnURSNEUjWPR-6" target="0sy5codoZnURSNEUjWPR-10" edge="1">
          <mxGeometry relative="1" as="geometry" />
        </mxCell>
        <mxCell id="0sy5codoZnURSNEUjWPR-6" value="VALIDASI AKUN" style="rhombus;whiteSpace=wrap;html=1;rounded=0;" parent="WIyWlLk6GJQsqaUBKTNV-1" vertex="1">
          <mxGeometry x="340" y="420" width="80" height="102" as="geometry" />
        </mxCell>
        <mxCell id="pecYIpiMqTeY3rG28cuH-1" value="" style="edgeStyle=orthogonalEdgeStyle;rounded=0;orthogonalLoop=1;jettySize=auto;html=1;" parent="WIyWlLk6GJQsqaUBKTNV-1" source="0sy5codoZnURSNEUjWPR-8" target="pecYIpiMqTeY3rG28cuH-0" edge="1">
          <mxGeometry relative="1" as="geometry" />
        </mxCell>
        <mxCell id="0sy5codoZnURSNEUjWPR-8" value="AKUN TIDAK &lt;br&gt;AKTIF" style="shape=parallelogram;perimeter=parallelogramPerimeter;whiteSpace=wrap;html=1;fixedSize=1;rounded=0;" parent="WIyWlLk6GJQsqaUBKTNV-1" vertex="1">
          <mxGeometry x="480" y="441" width="120" height="60" as="geometry" />
        </mxCell>
        <mxCell id="pecYIpiMqTeY3rG28cuH-7" value="" style="edgeStyle=orthogonalEdgeStyle;rounded=0;orthogonalLoop=1;jettySize=auto;html=1;" parent="WIyWlLk6GJQsqaUBKTNV-1" source="0sy5codoZnURSNEUjWPR-10" target="pecYIpiMqTeY3rG28cuH-6" edge="1">
          <mxGeometry relative="1" as="geometry" />
        </mxCell>
        <mxCell id="0sy5codoZnURSNEUjWPR-10" value="AKUN TELAH &lt;br&gt;AKTIF" style="shape=parallelogram;perimeter=parallelogramPerimeter;whiteSpace=wrap;html=1;fixedSize=1;rounded=0;" parent="WIyWlLk6GJQsqaUBKTNV-1" vertex="1">
          <mxGeometry x="320" y="555" width="120" height="60" as="geometry" />
        </mxCell>
        <mxCell id="pecYIpiMqTeY3rG28cuH-2" value="" style="edgeStyle=orthogonalEdgeStyle;rounded=0;orthogonalLoop=1;jettySize=auto;html=1;" parent="WIyWlLk6GJQsqaUBKTNV-1" source="pecYIpiMqTeY3rG28cuH-0" target="0sy5codoZnURSNEUjWPR-10" edge="1">
          <mxGeometry relative="1" as="geometry">
            <Array as="points">
              <mxPoint x="450" y="590" />
              <mxPoint x="450" y="590" />
            </Array>
          </mxGeometry>
        </mxCell>
        <mxCell id="pecYIpiMqTeY3rG28cuH-0" value="PROSES AKTIVASI&lt;br&gt;AKUN" style="rounded=0;whiteSpace=wrap;html=1;" parent="WIyWlLk6GJQsqaUBKTNV-1" vertex="1">
          <mxGeometry x="480" y="560" width="120" height="60" as="geometry" />
        </mxCell>
        <mxCell id="pecYIpiMqTeY3rG28cuH-3" value="&lt;font style=&quot;font-size: 11px;&quot;&gt;Admin Verifikasi&lt;/font&gt;" style="text;html=1;align=center;verticalAlign=middle;resizable=0;points=[];autosize=1;strokeColor=#82b366;fillColor=#d5e8d4;" parent="WIyWlLk6GJQsqaUBKTNV-1" vertex="1">
          <mxGeometry x="555" y="508" width="100" height="30" as="geometry" />
        </mxCell>
        <mxCell id="pecYIpiMqTeY3rG28cuH-10" value="" style="edgeStyle=orthogonalEdgeStyle;rounded=0;orthogonalLoop=1;jettySize=auto;html=1;" parent="WIyWlLk6GJQsqaUBKTNV-1" source="pecYIpiMqTeY3rG28cuH-6" target="pecYIpiMqTeY3rG28cuH-9" edge="1">
          <mxGeometry relative="1" as="geometry" />
        </mxCell>
        <mxCell id="pecYIpiMqTeY3rG28cuH-13" value="" style="edgeStyle=orthogonalEdgeStyle;rounded=0;orthogonalLoop=1;jettySize=auto;html=1;" parent="WIyWlLk6GJQsqaUBKTNV-1" source="pecYIpiMqTeY3rG28cuH-6" target="pecYIpiMqTeY3rG28cuH-12" edge="1">
          <mxGeometry relative="1" as="geometry" />
        </mxCell>
        <mxCell id="pecYIpiMqTeY3rG28cuH-15" value="" style="edgeStyle=orthogonalEdgeStyle;rounded=0;orthogonalLoop=1;jettySize=auto;html=1;" parent="WIyWlLk6GJQsqaUBKTNV-1" source="pecYIpiMqTeY3rG28cuH-6" target="pecYIpiMqTeY3rG28cuH-14" edge="1">
          <mxGeometry relative="1" as="geometry" />
        </mxCell>
        <mxCell id="pecYIpiMqTeY3rG28cuH-6" value="LOGIN PENGGUNA" style="rounded=0;whiteSpace=wrap;html=1;fillColor=#60a917;fontColor=#ffffff;strokeColor=#2D7600;" parent="WIyWlLk6GJQsqaUBKTNV-1" vertex="1">
          <mxGeometry x="320" y="720" width="120" height="60" as="geometry" />
        </mxCell>
        <mxCell id="pecYIpiMqTeY3rG28cuH-8" value="&lt;ol style=&quot;font-size: 11px;&quot;&gt;&lt;li&gt;Administrator&lt;/li&gt;&lt;li style=&quot;&quot;&gt;Dosen&lt;/li&gt;&lt;li style=&quot;&quot;&gt;Mahasiswa&lt;/li&gt;&lt;/ol&gt;" style="text;html=1;align=left;verticalAlign=middle;resizable=0;points=[];autosize=1;fillColor=#dae8fc;strokeColor=#6c8ebf;" parent="WIyWlLk6GJQsqaUBKTNV-1" vertex="1">
          <mxGeometry x="390" y="630" width="130" height="80" as="geometry" />
        </mxCell>
        <mxCell id="pecYIpiMqTeY3rG28cuH-21" value="" style="edgeStyle=orthogonalEdgeStyle;rounded=0;orthogonalLoop=1;jettySize=auto;html=1;strokeWidth=1;" parent="WIyWlLk6GJQsqaUBKTNV-1" source="pecYIpiMqTeY3rG28cuH-9" target="pecYIpiMqTeY3rG28cuH-20" edge="1">
          <mxGeometry relative="1" as="geometry" />
        </mxCell>
        <mxCell id="pecYIpiMqTeY3rG28cuH-72" value="" style="edgeStyle=orthogonalEdgeStyle;rounded=0;orthogonalLoop=1;jettySize=auto;html=1;" parent="WIyWlLk6GJQsqaUBKTNV-1" source="pecYIpiMqTeY3rG28cuH-9" target="pecYIpiMqTeY3rG28cuH-71" edge="1">
          <mxGeometry relative="1" as="geometry" />
        </mxCell>
        <mxCell id="pecYIpiMqTeY3rG28cuH-9" value="BERANDA MAHASISWA" style="strokeWidth=1;html=1;shape=mxgraph.flowchart.display;whiteSpace=wrap;fillColor=#60a917;fontColor=#ffffff;strokeColor=#2D7600;" parent="WIyWlLk6GJQsqaUBKTNV-1" vertex="1">
          <mxGeometry x="140" y="720" width="100" height="60" as="geometry" />
        </mxCell>
        <mxCell id="pecYIpiMqTeY3rG28cuH-12" value="BERANDA DOSEN" style="strokeWidth=1;html=1;shape=mxgraph.flowchart.display;whiteSpace=wrap;fillColor=#60a917;fontColor=#ffffff;strokeColor=#2D7600;" parent="WIyWlLk6GJQsqaUBKTNV-1" vertex="1">
          <mxGeometry x="780" y="720" width="100" height="60" as="geometry" />
        </mxCell>
        <mxCell id="4Ws8mBS_8t4IrVpGHi6e-15" value="" style="edgeStyle=orthogonalEdgeStyle;rounded=0;orthogonalLoop=1;jettySize=auto;html=1;" edge="1" parent="WIyWlLk6GJQsqaUBKTNV-1" source="pecYIpiMqTeY3rG28cuH-14" target="4Ws8mBS_8t4IrVpGHi6e-13">
          <mxGeometry relative="1" as="geometry" />
        </mxCell>
        <mxCell id="4Ws8mBS_8t4IrVpGHi6e-19" value="" style="edgeStyle=orthogonalEdgeStyle;rounded=0;orthogonalLoop=1;jettySize=auto;html=1;" edge="1" parent="WIyWlLk6GJQsqaUBKTNV-1" source="pecYIpiMqTeY3rG28cuH-14" target="4Ws8mBS_8t4IrVpGHi6e-18">
          <mxGeometry relative="1" as="geometry" />
        </mxCell>
        <mxCell id="4Ws8mBS_8t4IrVpGHi6e-25" value="" style="edgeStyle=orthogonalEdgeStyle;rounded=0;orthogonalLoop=1;jettySize=auto;html=1;" edge="1" parent="WIyWlLk6GJQsqaUBKTNV-1" source="pecYIpiMqTeY3rG28cuH-14" target="4Ws8mBS_8t4IrVpGHi6e-24">
          <mxGeometry relative="1" as="geometry" />
        </mxCell>
        <mxCell id="pecYIpiMqTeY3rG28cuH-14" value="BERANDA ADMIN" style="strokeWidth=2;html=1;shape=mxgraph.flowchart.display;whiteSpace=wrap;fillColor=#60a917;fontColor=#ffffff;strokeColor=#2D7600;" parent="WIyWlLk6GJQsqaUBKTNV-1" vertex="1">
          <mxGeometry x="330" y="1120" width="100" height="60" as="geometry" />
        </mxCell>
        <mxCell id="pecYIpiMqTeY3rG28cuH-16" value="&lt;ol style=&quot;font-size: 11px;&quot;&gt;&lt;li&gt;&lt;span style=&quot;font-size: 11px;&quot;&gt;Dashboard&lt;/span&gt;&lt;/li&gt;&lt;li&gt;&lt;span style=&quot;font-size: 11px;&quot;&gt;Data KKN&lt;/span&gt;&lt;/li&gt;&lt;li&gt;&lt;span style=&quot;font-size: 11px;&quot;&gt;Report Nilai KKN&lt;/span&gt;&lt;/li&gt;&lt;li&gt;&lt;span style=&quot;font-size: 11px;&quot;&gt;Profil&lt;/span&gt;&lt;/li&gt;&lt;/ol&gt;" style="text;html=1;align=left;verticalAlign=middle;resizable=0;points=[];autosize=1;strokeColor=#d79b00;fillColor=#ffe6cc;strokeWidth=1;" parent="WIyWlLk6GJQsqaUBKTNV-1" vertex="1">
          <mxGeometry x="130" y="620" width="150" height="90" as="geometry" />
        </mxCell>
        <mxCell id="pecYIpiMqTeY3rG28cuH-17" value="&lt;ol&gt;&lt;li&gt;&lt;span style=&quot;font-size: 11px;&quot;&gt;Dashboard&lt;/span&gt;&lt;/li&gt;&lt;li&gt;&lt;span style=&quot;font-size: 11px;&quot;&gt;Data KKN&lt;/span&gt;&lt;/li&gt;&lt;li&gt;&lt;span style=&quot;font-size: 11px;&quot;&gt;Report Nilai KKN&lt;/span&gt;&lt;/li&gt;&lt;li&gt;&lt;span style=&quot;font-size: 11px;&quot;&gt;Profil&lt;/span&gt;&lt;/li&gt;&lt;/ol&gt;" style="text;html=1;align=left;verticalAlign=middle;resizable=0;points=[];autosize=1;strokeColor=#d79b00;fillColor=#ffe6cc;" parent="WIyWlLk6GJQsqaUBKTNV-1" vertex="1">
          <mxGeometry x="620" y="615" width="150" height="100" as="geometry" />
        </mxCell>
        <mxCell id="pecYIpiMqTeY3rG28cuH-18" value="&lt;ol style=&quot;font-size: 11px;&quot;&gt;&lt;li&gt;&lt;span style=&quot;font-size: 11px;&quot;&gt;Dashboard&lt;/span&gt;&lt;/li&gt;&lt;li&gt;&lt;span style=&quot;font-size: 11px;&quot;&gt;Data Master&lt;/span&gt;&lt;/li&gt;&lt;li&gt;&lt;span style=&quot;font-size: 11px;&quot;&gt;Data KKN&lt;/span&gt;&lt;/li&gt;&lt;li&gt;&lt;span style=&quot;font-size: 11px;&quot;&gt;Report&lt;/span&gt;&lt;/li&gt;&lt;/ol&gt;" style="text;html=1;align=left;verticalAlign=middle;resizable=0;points=[];autosize=1;strokeColor=#d79b00;fillColor=#ffe6cc;" parent="WIyWlLk6GJQsqaUBKTNV-1" vertex="1">
          <mxGeometry x="250" y="795" width="120" height="90" as="geometry" />
        </mxCell>
        <mxCell id="pecYIpiMqTeY3rG28cuH-19" value="&lt;b&gt;&lt;font style=&quot;font-size: 22px;&quot;&gt;Flowchart SIMKKN Muhammadyah Palembang&lt;/font&gt;&lt;/b&gt;" style="text;html=1;align=center;verticalAlign=middle;resizable=0;points=[];autosize=1;strokeColor=none;fillColor=none;" parent="WIyWlLk6GJQsqaUBKTNV-1" vertex="1">
          <mxGeometry x="125" y="23" width="510" height="40" as="geometry" />
        </mxCell>
        <mxCell id="pecYIpiMqTeY3rG28cuH-23" value="" style="edgeStyle=orthogonalEdgeStyle;rounded=0;orthogonalLoop=1;jettySize=auto;html=1;strokeWidth=1;" parent="WIyWlLk6GJQsqaUBKTNV-1" source="pecYIpiMqTeY3rG28cuH-20" target="pecYIpiMqTeY3rG28cuH-22" edge="1">
          <mxGeometry relative="1" as="geometry" />
        </mxCell>
        <mxCell id="pecYIpiMqTeY3rG28cuH-20" value="Input Data" style="html=1;strokeWidth=1;shape=manualInput;whiteSpace=wrap;rounded=1;size=26;arcSize=11;" parent="WIyWlLk6GJQsqaUBKTNV-1" vertex="1">
          <mxGeometry x="-20" y="720" width="100" height="60" as="geometry" />
        </mxCell>
        <mxCell id="pecYIpiMqTeY3rG28cuH-25" value="" style="edgeStyle=orthogonalEdgeStyle;rounded=0;orthogonalLoop=1;jettySize=auto;html=1;strokeWidth=1;" parent="WIyWlLk6GJQsqaUBKTNV-1" source="pecYIpiMqTeY3rG28cuH-22" target="pecYIpiMqTeY3rG28cuH-24" edge="1">
          <mxGeometry relative="1" as="geometry" />
        </mxCell>
        <mxCell id="pecYIpiMqTeY3rG28cuH-52" value="" style="edgeStyle=orthogonalEdgeStyle;rounded=0;orthogonalLoop=1;jettySize=auto;html=1;" parent="WIyWlLk6GJQsqaUBKTNV-1" source="pecYIpiMqTeY3rG28cuH-22" target="pecYIpiMqTeY3rG28cuH-51" edge="1">
          <mxGeometry relative="1" as="geometry" />
        </mxCell>
        <mxCell id="pecYIpiMqTeY3rG28cuH-59" value="" style="edgeStyle=orthogonalEdgeStyle;rounded=0;orthogonalLoop=1;jettySize=auto;html=1;" parent="WIyWlLk6GJQsqaUBKTNV-1" source="pecYIpiMqTeY3rG28cuH-22" target="pecYIpiMqTeY3rG28cuH-58" edge="1">
          <mxGeometry relative="1" as="geometry" />
        </mxCell>
        <mxCell id="pecYIpiMqTeY3rG28cuH-22" value="Data KKN" style="rhombus;whiteSpace=wrap;html=1;strokeWidth=1;rounded=1;arcSize=11;" parent="WIyWlLk6GJQsqaUBKTNV-1" vertex="1">
          <mxGeometry x="-190" y="710" width="80" height="80" as="geometry" />
        </mxCell>
        <mxCell id="pecYIpiMqTeY3rG28cuH-28" value="" style="edgeStyle=orthogonalEdgeStyle;rounded=0;orthogonalLoop=1;jettySize=auto;html=1;strokeWidth=1;" parent="WIyWlLk6GJQsqaUBKTNV-1" source="pecYIpiMqTeY3rG28cuH-24" target="pecYIpiMqTeY3rG28cuH-27" edge="1">
          <mxGeometry relative="1" as="geometry" />
        </mxCell>
        <mxCell id="pecYIpiMqTeY3rG28cuH-24" value="Pengajuan Proker KKN" style="shape=parallelogram;perimeter=parallelogramPerimeter;whiteSpace=wrap;html=1;fixedSize=1;strokeWidth=1;rounded=1;arcSize=11;" parent="WIyWlLk6GJQsqaUBKTNV-1" vertex="1">
          <mxGeometry x="-210" y="560" width="120" height="60" as="geometry" />
        </mxCell>
        <mxCell id="pecYIpiMqTeY3rG28cuH-41" value="" style="edgeStyle=orthogonalEdgeStyle;rounded=0;orthogonalLoop=1;jettySize=auto;html=1;" parent="WIyWlLk6GJQsqaUBKTNV-1" source="pecYIpiMqTeY3rG28cuH-27" target="pecYIpiMqTeY3rG28cuH-40" edge="1">
          <mxGeometry relative="1" as="geometry" />
        </mxCell>
        <mxCell id="pecYIpiMqTeY3rG28cuH-43" value="" style="edgeStyle=orthogonalEdgeStyle;rounded=0;orthogonalLoop=1;jettySize=auto;html=1;" parent="WIyWlLk6GJQsqaUBKTNV-1" source="pecYIpiMqTeY3rG28cuH-27" target="pecYIpiMqTeY3rG28cuH-42" edge="1">
          <mxGeometry relative="1" as="geometry" />
        </mxCell>
        <mxCell id="pecYIpiMqTeY3rG28cuH-27" value="Disetujui / Tidak Disetujui" style="rhombus;whiteSpace=wrap;html=1;strokeWidth=1;rounded=1;arcSize=11;" parent="WIyWlLk6GJQsqaUBKTNV-1" vertex="1">
          <mxGeometry x="-190" y="410" width="80" height="80" as="geometry" />
        </mxCell>
        <mxCell id="pecYIpiMqTeY3rG28cuH-35" value="" style="edgeStyle=orthogonalEdgeStyle;rounded=0;orthogonalLoop=1;jettySize=auto;html=1;strokeWidth=1;" parent="WIyWlLk6GJQsqaUBKTNV-1" target="pecYIpiMqTeY3rG28cuH-24" edge="1">
          <mxGeometry relative="1" as="geometry">
            <mxPoint x="-50" y="590" as="sourcePoint" />
          </mxGeometry>
        </mxCell>
        <mxCell id="pecYIpiMqTeY3rG28cuH-39" value="" style="edgeStyle=orthogonalEdgeStyle;rounded=0;orthogonalLoop=1;jettySize=auto;html=1;" parent="WIyWlLk6GJQsqaUBKTNV-1" target="pecYIpiMqTeY3rG28cuH-38" edge="1">
          <mxGeometry relative="1" as="geometry">
            <mxPoint x="10" y="480" as="sourcePoint" />
          </mxGeometry>
        </mxCell>
        <mxCell id="pecYIpiMqTeY3rG28cuH-38" value="Pengajuan Ulang" style="whiteSpace=wrap;html=1;rounded=1;strokeWidth=1;arcSize=11;" parent="WIyWlLk6GJQsqaUBKTNV-1" vertex="1">
          <mxGeometry x="-50" y="560" width="120" height="60" as="geometry" />
        </mxCell>
        <mxCell id="pecYIpiMqTeY3rG28cuH-40" value="Tidak Disetujui" style="rounded=0;whiteSpace=wrap;html=1;" parent="WIyWlLk6GJQsqaUBKTNV-1" vertex="1">
          <mxGeometry x="-50" y="420" width="120" height="60" as="geometry" />
        </mxCell>
        <mxCell id="pecYIpiMqTeY3rG28cuH-42" value="Disetujui" style="rounded=0;whiteSpace=wrap;html=1;" parent="WIyWlLk6GJQsqaUBKTNV-1" vertex="1">
          <mxGeometry x="-210" y="312" width="120" height="60" as="geometry" />
        </mxCell>
        <mxCell id="pecYIpiMqTeY3rG28cuH-45" value="&lt;font style=&quot;font-size: 11px;&quot;&gt;Informasi Alasan Penolakan&lt;/font&gt;" style="text;html=1;align=center;verticalAlign=middle;resizable=0;points=[];autosize=1;strokeColor=#B20000;fillColor=#e51400;fontColor=#ffffff;" parent="WIyWlLk6GJQsqaUBKTNV-1" vertex="1">
          <mxGeometry x="80" y="430" width="160" height="30" as="geometry" />
        </mxCell>
        <mxCell id="pecYIpiMqTeY3rG28cuH-55" value="" style="edgeStyle=orthogonalEdgeStyle;rounded=0;orthogonalLoop=1;jettySize=auto;html=1;" parent="WIyWlLk6GJQsqaUBKTNV-1" source="pecYIpiMqTeY3rG28cuH-51" target="pecYIpiMqTeY3rG28cuH-54" edge="1">
          <mxGeometry relative="1" as="geometry" />
        </mxCell>
        <mxCell id="pecYIpiMqTeY3rG28cuH-51" value="Data Laporan &lt;br&gt;Harian Mahasiswa" style="shape=parallelogram;perimeter=parallelogramPerimeter;whiteSpace=wrap;html=1;fixedSize=1;strokeWidth=1;rounded=1;arcSize=11;" parent="WIyWlLk6GJQsqaUBKTNV-1" vertex="1">
          <mxGeometry x="-371" y="720" width="120" height="60" as="geometry" />
        </mxCell>
        <mxCell id="pecYIpiMqTeY3rG28cuH-53" value="&lt;ol style=&quot;font-size: 11px;&quot;&gt;&lt;li&gt;Mahasiswa Melaporkan Kegiatan Harian KKN&lt;/li&gt;&lt;li&gt;Dosen Menanggapi Hasil Laporan&lt;/li&gt;&lt;li style=&quot;&quot;&gt;Dosen Memberikan Nilai Laporan Harian&lt;/li&gt;&lt;/ol&gt;" style="text;html=1;align=left;verticalAlign=middle;resizable=0;points=[];autosize=1;strokeColor=#006EAF;fillColor=#1ba1e2;fontColor=#ffffff;" parent="WIyWlLk6GJQsqaUBKTNV-1" vertex="1">
          <mxGeometry x="-475" y="625" width="290" height="80" as="geometry" />
        </mxCell>
        <mxCell id="pecYIpiMqTeY3rG28cuH-57" value="" style="edgeStyle=orthogonalEdgeStyle;rounded=0;orthogonalLoop=1;jettySize=auto;html=1;" parent="WIyWlLk6GJQsqaUBKTNV-1" source="pecYIpiMqTeY3rG28cuH-54" target="pecYIpiMqTeY3rG28cuH-56" edge="1">
          <mxGeometry relative="1" as="geometry" />
        </mxCell>
        <mxCell id="pecYIpiMqTeY3rG28cuH-54" value="Dokumen Laporan Harian" style="shape=document;whiteSpace=wrap;html=1;boundedLbl=1;strokeWidth=1;rounded=1;arcSize=11;" parent="WIyWlLk6GJQsqaUBKTNV-1" vertex="1">
          <mxGeometry x="-570" y="710" width="120" height="80" as="geometry" />
        </mxCell>
        <mxCell id="pecYIpiMqTeY3rG28cuH-56" value="Laporan Harian Terkumpul" style="whiteSpace=wrap;html=1;strokeWidth=1;rounded=1;arcSize=11;" parent="WIyWlLk6GJQsqaUBKTNV-1" vertex="1">
          <mxGeometry x="-770" y="720" width="120" height="60" as="geometry" />
        </mxCell>
        <mxCell id="pecYIpiMqTeY3rG28cuH-64" value="" style="edgeStyle=orthogonalEdgeStyle;rounded=0;orthogonalLoop=1;jettySize=auto;html=1;" parent="WIyWlLk6GJQsqaUBKTNV-1" source="pecYIpiMqTeY3rG28cuH-58" target="pecYIpiMqTeY3rG28cuH-63" edge="1">
          <mxGeometry relative="1" as="geometry" />
        </mxCell>
        <mxCell id="pecYIpiMqTeY3rG28cuH-58" value="Data Laporan Akhir kelompok" style="shape=parallelogram;perimeter=parallelogramPerimeter;whiteSpace=wrap;html=1;fixedSize=1;strokeWidth=1;rounded=1;arcSize=11;" parent="WIyWlLk6GJQsqaUBKTNV-1" vertex="1">
          <mxGeometry x="-210" y="880" width="120" height="60" as="geometry" />
        </mxCell>
        <mxCell id="pecYIpiMqTeY3rG28cuH-69" value="" style="edgeStyle=orthogonalEdgeStyle;rounded=0;orthogonalLoop=1;jettySize=auto;html=1;" parent="WIyWlLk6GJQsqaUBKTNV-1" source="pecYIpiMqTeY3rG28cuH-60" target="pecYIpiMqTeY3rG28cuH-68" edge="1">
          <mxGeometry relative="1" as="geometry" />
        </mxCell>
        <mxCell id="pecYIpiMqTeY3rG28cuH-60" value="Laporan Akhir Mahasiswa KKN" style="strokeWidth=1;html=1;shape=mxgraph.flowchart.multi-document;whiteSpace=wrap;align=left;" parent="WIyWlLk6GJQsqaUBKTNV-1" vertex="1">
          <mxGeometry x="-560" y="875" width="113" height="70" as="geometry" />
        </mxCell>
        <mxCell id="pecYIpiMqTeY3rG28cuH-65" value="" style="edgeStyle=orthogonalEdgeStyle;rounded=0;orthogonalLoop=1;jettySize=auto;html=1;" parent="WIyWlLk6GJQsqaUBKTNV-1" source="pecYIpiMqTeY3rG28cuH-63" target="pecYIpiMqTeY3rG28cuH-60" edge="1">
          <mxGeometry relative="1" as="geometry" />
        </mxCell>
        <mxCell id="pecYIpiMqTeY3rG28cuH-63" value="Data Laporan Akhir Mahasiswa" style="shape=parallelogram;perimeter=parallelogramPerimeter;whiteSpace=wrap;html=1;fixedSize=1;strokeWidth=1;rounded=1;arcSize=11;" parent="WIyWlLk6GJQsqaUBKTNV-1" vertex="1">
          <mxGeometry x="-390" y="880" width="120" height="60" as="geometry" />
        </mxCell>
        <mxCell id="pecYIpiMqTeY3rG28cuH-68" value="&lt;div style=&quot;&quot;&gt;&lt;span style=&quot;background-color: initial;&quot;&gt;Laporan Akhir Mahasiswa Terkumpul&lt;/span&gt;&lt;/div&gt;" style="rounded=1;whiteSpace=wrap;html=1;align=center;strokeWidth=1;" parent="WIyWlLk6GJQsqaUBKTNV-1" vertex="1">
          <mxGeometry x="-766.5" y="880" width="120" height="60" as="geometry" />
        </mxCell>
        <mxCell id="pecYIpiMqTeY3rG28cuH-70" value="&lt;span style=&quot;background-color: initial; font-size: 11px;&quot;&gt;Dokumen Yang Harus Dikumpulkan Sebagai Tugas Akhir Meliputi&lt;br&gt;&lt;ol&gt;&lt;li&gt;&lt;span style=&quot;background-color: initial;&quot;&gt;Dokumen Laporan Akhir&amp;nbsp;&lt;/span&gt;&lt;/li&gt;&lt;li&gt;&lt;span style=&quot;background-color: initial;&quot;&gt;Jurnal&lt;/span&gt;&lt;/li&gt;&lt;li&gt;&lt;span style=&quot;background-color: initial;&quot;&gt;Video Proker KKN (kelompok kkn)&lt;/span&gt;&lt;/li&gt;&lt;/ol&gt;&lt;/span&gt;" style="text;html=1;align=left;verticalAlign=middle;resizable=0;points=[];autosize=1;fillColor=#1ba1e2;fontColor=#ffffff;strokeColor=#006EAF;" parent="WIyWlLk6GJQsqaUBKTNV-1" vertex="1">
          <mxGeometry x="-630" y="955" width="340" height="90" as="geometry" />
        </mxCell>
        <mxCell id="pecYIpiMqTeY3rG28cuH-74" value="" style="edgeStyle=orthogonalEdgeStyle;rounded=0;orthogonalLoop=1;jettySize=auto;html=1;" parent="WIyWlLk6GJQsqaUBKTNV-1" source="pecYIpiMqTeY3rG28cuH-71" target="pecYIpiMqTeY3rG28cuH-73" edge="1">
          <mxGeometry relative="1" as="geometry" />
        </mxCell>
        <mxCell id="pecYIpiMqTeY3rG28cuH-71" value="Report Nilai" style="shape=parallelogram;perimeter=parallelogramPerimeter;whiteSpace=wrap;html=1;fixedSize=1;strokeWidth=1;" parent="WIyWlLk6GJQsqaUBKTNV-1" vertex="1">
          <mxGeometry x="130" y="900" width="120" height="60" as="geometry" />
        </mxCell>
        <mxCell id="pecYIpiMqTeY3rG28cuH-73" value="Hasil Nilai Akhir KKN" style="rounded=1;whiteSpace=wrap;html=1;strokeWidth=1;" parent="WIyWlLk6GJQsqaUBKTNV-1" vertex="1">
          <mxGeometry x="-30" y="900" width="120" height="60" as="geometry" />
        </mxCell>
        <mxCell id="pecYIpiMqTeY3rG28cuH-76" value="&lt;font style=&quot;font-size: 11px;&quot;&gt;Dosen Memberikan Nilai Akhir&lt;/font&gt;" style="text;html=1;align=center;verticalAlign=middle;resizable=0;points=[];autosize=1;strokeColor=#006EAF;fillColor=#1ba1e2;fontColor=#ffffff;" parent="WIyWlLk6GJQsqaUBKTNV-1" vertex="1">
          <mxGeometry x="-816.5" y="845" width="170" height="30" as="geometry" />
        </mxCell>
        <mxCell id="4Ws8mBS_8t4IrVpGHi6e-13" value="Master Data" style="shape=parallelogram;perimeter=parallelogramPerimeter;whiteSpace=wrap;html=1;fixedSize=1;strokeWidth=2;" vertex="1" parent="WIyWlLk6GJQsqaUBKTNV-1">
          <mxGeometry x="50" y="1120" width="120" height="60" as="geometry" />
        </mxCell>
        <mxCell id="4Ws8mBS_8t4IrVpGHi6e-18" value="Report Data" style="shape=parallelogram;perimeter=parallelogramPerimeter;whiteSpace=wrap;html=1;fixedSize=1;strokeWidth=2;" vertex="1" parent="WIyWlLk6GJQsqaUBKTNV-1">
          <mxGeometry x="320" y="1430" width="120" height="60" as="geometry" />
        </mxCell>
        <mxCell id="4Ws8mBS_8t4IrVpGHi6e-20" value="&lt;ol&gt;&lt;li&gt;&lt;span style=&quot;font-size: 11px;&quot;&gt;Verifikasi Pendaftaran Mahasiswa&lt;/span&gt;&lt;/li&gt;&lt;li&gt;&lt;span style=&quot;font-size: 11px;&quot;&gt;Master Data Mahasiswa&lt;/span&gt;&lt;/li&gt;&lt;li&gt;&lt;span style=&quot;font-size: 11px;&quot;&gt;Master Data Dosen&lt;/span&gt;&lt;/li&gt;&lt;li&gt;&lt;span style=&quot;font-size: 11px;&quot;&gt;Master Data Prodi&lt;/span&gt;&lt;/li&gt;&lt;li&gt;&lt;span style=&quot;font-size: 11px;&quot;&gt;Master Data Kelompok KKN&lt;/span&gt;&lt;/li&gt;&lt;/ol&gt;" style="text;html=1;align=left;verticalAlign=middle;resizable=0;points=[];autosize=1;strokeColor=#006EAF;fillColor=#1ba1e2;fontColor=#ffffff;" vertex="1" parent="WIyWlLk6GJQsqaUBKTNV-1">
          <mxGeometry x="125" y="1198" width="230" height="110" as="geometry" />
        </mxCell>
        <mxCell id="4Ws8mBS_8t4IrVpGHi6e-21" value="&lt;font style=&quot;font-size: 11px;&quot;&gt;Master Data Pengguna&lt;/font&gt;" style="text;html=1;align=center;verticalAlign=middle;resizable=0;points=[];autosize=1;strokeColor=#B20000;fillColor=#e51400;fontColor=#ffffff;" vertex="1" parent="WIyWlLk6GJQsqaUBKTNV-1">
          <mxGeometry x="160" y="1168" width="140" height="30" as="geometry" />
        </mxCell>
        <mxCell id="4Ws8mBS_8t4IrVpGHi6e-29" value="" style="edgeStyle=orthogonalEdgeStyle;rounded=0;orthogonalLoop=1;jettySize=auto;html=1;" edge="1" parent="WIyWlLk6GJQsqaUBKTNV-1" source="4Ws8mBS_8t4IrVpGHi6e-24" target="4Ws8mBS_8t4IrVpGHi6e-28">
          <mxGeometry relative="1" as="geometry" />
        </mxCell>
        <mxCell id="4Ws8mBS_8t4IrVpGHi6e-31" value="" style="edgeStyle=orthogonalEdgeStyle;rounded=0;orthogonalLoop=1;jettySize=auto;html=1;" edge="1" parent="WIyWlLk6GJQsqaUBKTNV-1" source="4Ws8mBS_8t4IrVpGHi6e-24" target="4Ws8mBS_8t4IrVpGHi6e-30">
          <mxGeometry relative="1" as="geometry" />
        </mxCell>
        <mxCell id="4Ws8mBS_8t4IrVpGHi6e-33" value="" style="edgeStyle=orthogonalEdgeStyle;rounded=0;orthogonalLoop=1;jettySize=auto;html=1;" edge="1" parent="WIyWlLk6GJQsqaUBKTNV-1" source="4Ws8mBS_8t4IrVpGHi6e-24" target="4Ws8mBS_8t4IrVpGHi6e-32">
          <mxGeometry relative="1" as="geometry" />
        </mxCell>
        <mxCell id="4Ws8mBS_8t4IrVpGHi6e-24" value="Data KKN" style="rhombus;whiteSpace=wrap;html=1;strokeWidth=2;" vertex="1" parent="WIyWlLk6GJQsqaUBKTNV-1">
          <mxGeometry x="520" y="1110" width="80" height="80" as="geometry" />
        </mxCell>
        <mxCell id="4Ws8mBS_8t4IrVpGHi6e-28" value="Data Laporan Akhir Mahasiswa" style="rounded=1;whiteSpace=wrap;html=1;strokeWidth=2;" vertex="1" parent="WIyWlLk6GJQsqaUBKTNV-1">
          <mxGeometry x="500" y="1280" width="120" height="60" as="geometry" />
        </mxCell>
        <mxCell id="4Ws8mBS_8t4IrVpGHi6e-30" value="Data Pengajuan Proker KKN" style="rounded=1;whiteSpace=wrap;html=1;strokeWidth=2;" vertex="1" parent="WIyWlLk6GJQsqaUBKTNV-1">
          <mxGeometry x="660" y="1120" width="120" height="60" as="geometry" />
        </mxCell>
        <mxCell id="4Ws8mBS_8t4IrVpGHi6e-32" value="Data Kelompok Proker KKN" style="rounded=1;whiteSpace=wrap;html=1;strokeWidth=2;" vertex="1" parent="WIyWlLk6GJQsqaUBKTNV-1">
          <mxGeometry x="500" y="960" width="120" height="60" as="geometry" />
        </mxCell>
        <mxCell id="4Ws8mBS_8t4IrVpGHi6e-34" value="&lt;div style=&quot;text-align: left;&quot;&gt;&lt;span style=&quot;background-color: initial;&quot;&gt;1. upload hasil surver lapangan&lt;/span&gt;&lt;/div&gt;(foto bentuk pdf)&lt;br&gt;&lt;div style=&quot;text-align: left;&quot;&gt;&lt;span style=&quot;background-color: initial;&quot;&gt;2. valifasi setuju / tidak setuju dari DPL&lt;/span&gt;&lt;/div&gt;&lt;div style=&quot;text-align: left;&quot;&gt;&lt;br&gt;&lt;/div&gt;" style="text;html=1;align=center;verticalAlign=middle;resizable=0;points=[];autosize=1;strokeColor=none;fillColor=none;" vertex="1" parent="WIyWlLk6GJQsqaUBKTNV-1">
          <mxGeometry x="-505" y="348" width="230" height="70" as="geometry" />
        </mxCell>
        <mxCell id="4Ws8mBS_8t4IrVpGHi6e-35" value="&lt;b&gt;rencana kegiatan per proker &amp;amp; individu&lt;/b&gt;" style="text;html=1;align=center;verticalAlign=middle;resizable=0;points=[];autosize=1;strokeColor=none;fillColor=none;" vertex="1" parent="WIyWlLk6GJQsqaUBKTNV-1">
          <mxGeometry x="-495" y="478" width="250" height="30" as="geometry" />
        </mxCell>
        <mxCell id="4Ws8mBS_8t4IrVpGHi6e-36" value="Laporan DPL survei,pengantaran mahasiswa,supervisi,penjemputan (upload sesuai format)" style="text;html=1;align=center;verticalAlign=middle;resizable=0;points=[];autosize=1;strokeColor=none;fillColor=none;" vertex="1" parent="WIyWlLk6GJQsqaUBKTNV-1">
          <mxGeometry x="770" y="615" width="510" height="30" as="geometry" />
        </mxCell>
        <mxCell id="4Ws8mBS_8t4IrVpGHi6e-37" value="catatan : validasi nilai akhir mahasiswa sebelum diumumkan ke publik&amp;nbsp;" style="text;html=1;align=center;verticalAlign=middle;resizable=0;points=[];autosize=1;strokeColor=none;fillColor=none;" vertex="1" parent="WIyWlLk6GJQsqaUBKTNV-1">
          <mxGeometry x="770" y="648" width="400" height="30" as="geometry" />
        </mxCell>
        <mxCell id="4Ws8mBS_8t4IrVpGHi6e-38" value="catatan : sp3 untuk mahasiswa yang dihukum" style="text;html=1;align=center;verticalAlign=middle;resizable=0;points=[];autosize=1;strokeColor=none;fillColor=none;" vertex="1" parent="WIyWlLk6GJQsqaUBKTNV-1">
          <mxGeometry x="865" y="358" width="270" height="30" as="geometry" />
        </mxCell>
        <mxCell id="4Ws8mBS_8t4IrVpGHi6e-39" value="menu pengaduan dosen ke mahasiswa" style="text;html=1;align=center;verticalAlign=middle;resizable=0;points=[];autosize=1;strokeColor=none;fillColor=none;" vertex="1" parent="WIyWlLk6GJQsqaUBKTNV-1">
          <mxGeometry x="855" y="178" width="230" height="30" as="geometry" />
        </mxCell>
      </root>
    </mxGraphModel>
  </diagram>
  <diagram id="36PhB0FVM9uLcCwctSJp" name="Page-2">
    <mxGraphModel dx="1194" dy="782" grid="1" gridSize="10" guides="1" tooltips="1" connect="1" arrows="1" fold="1" page="1" pageScale="1" pageWidth="850" pageHeight="1100" math="0" shadow="0">
      <root>
        <mxCell id="0" />
        <mxCell id="1" parent="0" />
      </root>
    </mxGraphModel>
  </diagram>
</mxfile>
